<svg width="23" height="29" viewBox="0 0 23 29" fill="none" xmlns="http://www.w3.org/2000/svg">
<path d="M2.3132 4.00125C1.50642 4.64026 1.02876 5.5796 0.95547 6.60343C0.854792 8.01005 0.856117 9.2787 0.857496 10.5928C0.859173 12.199 0.875104 13.8052 0.900323 15.4112C0.921459 16.7574 0.9427 18.1105 0.9427 19.7502C0.9427 20.2337 1.13047 20.8214 1.58482 21.529C2.03724 22.2336 2.70436 22.9793 3.53651 23.7531C5.18939 25.29 7.04691 26.5934 8.89255 27.8885C9.04303 27.9941 9.19358 28.0997 9.34375 28.2053C9.37506 28.2245 9.40569 28.2125 9.40569 28.1851V17.2119L5.33796 17.4801C3.72729 17.5864 2.36242 16.3086 2.36242 14.6944V12.1866C2.36242 10.5389 3.78192 9.2496 5.422 9.40761L10.2484 9.87261C11.2208 9.96632 12.2101 9.96632 13.1825 9.87261L18.0089 9.40761C19.649 9.2496 21.0685 10.5389 21.0685 12.1866V14.6944C21.0685 16.3086 19.7037 17.5864 18.0929 17.4801L14.0252 17.2119V28.1851C14.0252 28.2125 14.0558 28.2245 14.0871 28.2053C14.2361 28.1006 14.3853 27.996 14.5345 27.8912L14.5383 27.8886C16.384 26.5935 18.2415 25.29 19.8944 23.7531C20.7265 22.9793 21.3937 22.2336 21.8461 21.529C22.3005 20.8214 22.4882 20.2337 22.4882 19.7502C22.4882 18.1104 22.5095 16.7582 22.5306 15.412C22.5558 13.8059 22.5717 12.1992 22.5734 10.5929C22.5748 9.27878 22.5761 8.01005 22.4754 6.60343C22.4022 5.5796 21.9245 4.64026 21.1178 4.00125C15.7143 -0.286325 7.71472 -0.284824 2.3132 4.00125Z" fill="white"/>
<path d="M7.33442 11.4512C6.64909 11.4512 6.09351 12.0068 6.09351 12.6921V14.272C6.09351 14.7908 6.53724 15.1988 7.05434 15.1552L8.33808 15.047C8.70531 15.016 8.9876 14.7089 8.9876 14.3404V12.6921C8.9876 12.0068 8.43202 11.4512 7.74669 11.4512H7.33442Z" fill="white"/>
<path d="M15.3762 11.4512C14.6908 11.4512 14.1353 12.0068 14.1353 12.6921V14.3469C14.1353 14.7127 14.4135 15.0185 14.7776 15.0528L16.0597 15.174C16.5797 15.2231 17.0293 14.814 17.0293 14.2916V12.6921C17.0293 12.0068 16.4738 11.4512 15.7884 11.4512H15.3762Z" fill="white"/>
</svg>
