<svg width="28" height="29" viewBox="0 0 28 29" fill="none" xmlns="http://www.w3.org/2000/svg">
<path fill-rule="evenodd" clip-rule="evenodd" d="M8.1333 24.1091L11.7268 25.0626V23.8158L12.0201 23.5225H14.0735V24.9892V26.0159H11.8735L9.16 24.8425L8.1333 24.1091Z" fill="#CDBDB2"/>
<path fill-rule="evenodd" clip-rule="evenodd" d="M19.8665 24.1091L16.3464 25.0626V23.8158L16.053 23.5225H13.9996V24.9892V26.0159H16.1997L18.913 24.8425L19.8665 24.1091Z" fill="#CDBDB2"/>
<path fill-rule="evenodd" clip-rule="evenodd" d="M12.0153 21.3931L11.7219 23.8131L12.0885 23.5198H15.902L16.342 23.8131L16.0486 21.3931L15.462 21.0264L12.5285 21.0998L12.0153 21.3931Z" fill="#393939"/>
<path fill-rule="evenodd" clip-rule="evenodd" d="M10.0378 5.04199L11.7979 9.14877L12.6046 21.1025H15.4647L16.3447 9.14877L17.9581 5.04199H10.0378Z" fill="#F89C35"/>
<path fill-rule="evenodd" clip-rule="evenodd" d="M2.33903 14.0594L0.285645 19.9995L5.41911 19.7062H8.71914V17.1395L8.57247 11.8594L7.83911 12.4461L2.33903 14.0594Z" fill="#F89D35"/>
<path fill-rule="evenodd" clip-rule="evenodd" d="M6.22437 14.7207L12.2379 14.8674L11.5779 17.9475L8.71777 17.2141L6.22437 14.7207Z" fill="#D87C30"/>
<path fill-rule="evenodd" clip-rule="evenodd" d="M6.22437 14.7949L8.71776 17.1416V19.4884L6.22437 14.7949Z" fill="#EA8D3A"/>
<path fill-rule="evenodd" clip-rule="evenodd" d="M8.7229 17.2129L11.6563 17.9462L12.6097 21.0997L11.9497 21.4663L8.7229 19.5596V17.2129Z" fill="#F89D35"/>
<path fill-rule="evenodd" clip-rule="evenodd" d="M8.71998 19.5615L8.1333 24.1083L12.0201 21.395L8.71998 19.5615Z" fill="#EB8F35"/>
<path fill-rule="evenodd" clip-rule="evenodd" d="M12.239 14.8662L12.6057 21.0998L11.5056 17.9097L12.239 14.8662Z" fill="#EA8E3A"/>
<path fill-rule="evenodd" clip-rule="evenodd" d="M5.35059 19.6349L8.72401 19.5615L8.13733 24.1083L5.35059 19.6349Z" fill="#D87C30"/>
<path fill-rule="evenodd" clip-rule="evenodd" d="M1.89902 26.0853L8.13246 24.1052L5.34571 19.6318L0.285645 19.9984L1.89902 26.0853Z" fill="#EB8F35"/>
<path fill-rule="evenodd" clip-rule="evenodd" d="M11.7978 9.14648L8.6445 11.7866L6.22437 14.72L12.2379 14.94L11.7978 9.14648Z" fill="#E8821E"/>
<path fill-rule="evenodd" clip-rule="evenodd" d="M8.1333 24.1049L12.0201 21.3916L11.7268 23.7383V25.0584L9.08673 24.545L8.1333 24.1049Z" fill="#DFCEC3"/>
<path fill-rule="evenodd" clip-rule="evenodd" d="M19.8665 24.1049L16.053 21.3916L16.3464 23.7383V25.0584L18.9864 24.545L19.8665 24.1049Z" fill="#DFCEC3"/>
<path fill-rule="evenodd" clip-rule="evenodd" d="M10.6268 16.1875L11.4336 17.8743L8.57345 17.1409L10.6268 16.1875Z" fill="#393939"/>
<path fill-rule="evenodd" clip-rule="evenodd" d="M1.82544 1.59277L11.799 9.14624L10.1124 5.03947L1.82544 1.59277Z" fill="#E88F35"/>
<path fill-rule="evenodd" clip-rule="evenodd" d="M1.82638 1.59277L0.506348 5.62621L1.2397 10.0263L0.726353 10.3197L1.45971 10.9797L0.873024 11.493L1.67971 12.2264L1.16637 12.6664L2.33973 14.1331L7.83988 12.4464C10.5288 10.2952 11.8489 9.1952 11.8 9.14631C11.7511 9.09742 8.42656 6.57957 1.82638 1.59277Z" fill="#8E5A30"/>
<path fill-rule="evenodd" clip-rule="evenodd" d="M25.6607 14.0594L27.7141 19.9995L22.5806 19.7062H19.2806V17.1395L19.4273 11.8594L20.1606 12.4461L25.6607 14.0594Z" fill="#F89D35"/>
<path fill-rule="evenodd" clip-rule="evenodd" d="M21.7754 14.7207L15.7619 14.8674L16.4219 17.9475L19.282 17.2141L21.7754 14.7207Z" fill="#D87C30"/>
<path fill-rule="evenodd" clip-rule="evenodd" d="M21.7754 14.7949L19.282 17.1416V19.4884L21.7754 14.7949Z" fill="#EA8D3A"/>
<path fill-rule="evenodd" clip-rule="evenodd" d="M19.2769 17.2109L16.3434 17.9443L15.39 21.0978L16.0501 21.4644L19.2769 19.5577V17.2109Z" fill="#F89D35"/>
<path fill-rule="evenodd" clip-rule="evenodd" d="M19.2798 19.5615L19.8665 24.1083L16.053 21.4682L19.2798 19.5615Z" fill="#EB8F35"/>
<path fill-rule="evenodd" clip-rule="evenodd" d="M15.7608 14.8662L15.3941 21.0998L16.4941 17.9097L15.7608 14.8662Z" fill="#EA8E3A"/>
<path fill-rule="evenodd" clip-rule="evenodd" d="M22.6492 19.6349L19.2757 19.5615L19.8624 24.1083L22.6492 19.6349Z" fill="#D87C30"/>
<path fill-rule="evenodd" clip-rule="evenodd" d="M26.1007 26.0853L19.8673 24.1052L22.654 19.6318L27.7141 19.9984L26.1007 26.0853Z" fill="#EB8F35"/>
<path fill-rule="evenodd" clip-rule="evenodd" d="M16.2019 9.14648L19.3553 11.7866L21.7754 14.72L15.7619 14.94L16.2019 9.14648Z" fill="#E8821E"/>
<path fill-rule="evenodd" clip-rule="evenodd" d="M17.3729 16.1875L16.5662 17.8743L19.4263 17.1409L17.3729 16.1875Z" fill="#393939"/>
<path fill-rule="evenodd" clip-rule="evenodd" d="M26.1743 1.59277L16.2007 9.14624L17.8874 5.03947L26.1743 1.59277Z" fill="#E88F35"/>
<path fill-rule="evenodd" clip-rule="evenodd" d="M26.1734 1.59277L27.4934 5.62621L26.7601 10.0263L27.2734 10.3197L26.54 10.9797L27.1267 11.493L26.32 12.2264L26.8334 12.6664L25.66 14.1331L20.1599 12.4464C17.4709 10.2952 16.1509 9.1952 16.1998 9.14631C16.2487 9.09742 19.5732 6.57957 26.1734 1.59277Z" fill="#8E5A30"/>
</svg>
