<svg width="48" height="48" viewBox="0 0 48 48" fill="none" xmlns="http://www.w3.org/2000/svg">
<rect width="48" height="48" rx="24" fill="#121314"/>
<rect x="24" y="12" width="16.9706" height="16.9706" transform="rotate(45 24 12)" fill="#1F5AF6"/>
<path d="M28.0704 31.9292L23.9996 36.0001L19.2946 31.295V30.2772L18.417 29.1989V25.669H23.3315V28.2773L28.0704 25.1068H24.0335V22.9041H29.8256V29.1067L28.0704 30.2772V31.9292Z" fill="#A5BDFF"/>
<path d="M23.3315 18.2959H21.2253V24.0469L23.3315 22.6368V18.2959Z" fill="#A5BDFF"/>
<path d="M26.1397 18.2959H24.0335V22.1668H26.1397V18.2959Z" fill="#A5BDFF"/>
<path d="M28.948 18.2959H26.8418V22.1668H28.948V18.2959Z" fill="#A5BDFF"/>
<path d="M20.5232 18.2959H18.417V24.9317H19.9001L20.5232 24.517V18.2959Z" fill="#A5BDFF"/>
</svg>
